<svg id="图层_1" data-name="图层 1" xmlns="http://www.w3.org/2000/svg" xmlns:xlink="http://www.w3.org/1999/xlink" viewBox="0 0 600 600"><defs><style>.cls-1{fill:#fbf3ff;}.cls-2{fill:url(#未命名的渐变_20);}.cls-3{fill:url(#未命名的渐变_20-2);}.cls-4{fill:url(#未命名的渐变_20-3);}.cls-5{fill:url(#未命名的渐变_20-4);}.cls-6{fill:url(#未命名的渐变_20-5);}.cls-7{fill:url(#未命名的渐变_20-6);}.cls-8{fill:url(#未命名的渐变_20-7);}.cls-9{fill:url(#未命名的渐变_20-8);}.cls-10{fill:url(#未命名的渐变_20-9);}</style><linearGradient id="未命名的渐变_20" x1="0.07" y1="301.42" x2="599" y2="301.42" gradientUnits="userSpaceOnUse"><stop offset="0" stop-color="#d22ca4"/><stop offset="1" stop-color="#8a5ae0"/></linearGradient><linearGradient id="未命名的渐变_20-2" x1="281.84" y1="248.43" x2="317.23" y2="248.43" xlink:href="#未命名的渐变_20"/><linearGradient id="未命名的渐变_20-3" x1="281.84" y1="375.57" x2="317.23" y2="375.57" xlink:href="#未命名的渐变_20"/><linearGradient id="未命名的渐变_20-4" x1="218.28" y1="310.07" x2="253.66" y2="310.07" xlink:href="#未命名的渐变_20"/><linearGradient id="未命名的渐变_20-5" x1="345.41" y1="310.07" x2="380.79" y2="310.07" xlink:href="#未命名的渐变_20"/><linearGradient id="未命名的渐变_20-6" x1="235.97" y1="357.88" x2="271.35" y2="357.88" gradientTransform="translate(327.35 -74.54) rotate(45)" xlink:href="#未命名的渐变_20"/><linearGradient id="未命名的渐变_20-7" x1="325.87" y1="267.98" x2="361.25" y2="267.98" gradientTransform="translate(290.11 -164.44) rotate(45)" xlink:href="#未命名的渐变_20"/><linearGradient id="未命名的渐变_20-8" x1="235.97" y1="267.98" x2="271.35" y2="267.98" gradientTransform="translate(263.78 -100.87) rotate(45)" xlink:href="#未命名的渐变_20"/><linearGradient id="未命名的渐变_20-9" x1="325.87" y1="357.88" x2="361.25" y2="357.88" gradientTransform="translate(353.68 -138.11) rotate(45)" xlink:href="#未命名的渐变_20"/></defs><title>ico-movie</title><path class="cls-1" d="M553.65,264.31c-3.84-2.42-9.45-6-11.48-8a41.74,41.74,0,0,1,2-4.21c2.51-4.72,5.94-11.19,3.32-18.64-1.12-3.2-3.83-7.6-10.33-10.4a131.44,131.44,0,0,0-27.65-8,142.2,142.2,0,0,0,11.33-19.26c2-4.21,4.37-10.53,1.69-16.84s-8.6-8.38-11.43-9.33c-.55-.19-1.4-.47-1.34-.23a5.4,5.4,0,0,1-.22-.71c-.58-2.48.1-10.32.6-16,1.54-17.63,3.46-39.59-9-52.07-12.92-12.92-32.32-8.53-47.93-5-4.39,1-10.78,2.44-13.72,2.44h-.08a42,42,0,0,1-1.54-4.42c-1.56-5.12-3.71-12.12-10.83-15.53C424,76.59,419,75.39,412.41,78a129.67,129.67,0,0,0-24.15,13.2,140.16,140.16,0,0,0-5.28-20c-1.55-4.39-4.35-10.52-10.71-13.09s-12,.16-14.68,1.49c-.54.27-1.33.67-1.12.78a4.11,4.11,0,0,1-.66-.34c-2.17-1.34-7.23-7.37-10.92-11.77C333.51,34.67,319.34,17.8,301.69,17.8c-12.6,0-21.56,8-28.72,17.42a364,364,0,0,1-1.58,531.3c8.74,8.75,18.76,15.93,30.28,15.93,18.26,0,28.89-16.84,37.43-30.36,2.42-3.84,6-9.45,8-11.48a40.87,40.87,0,0,1,4.21,2c4.73,2.51,11.19,6,18.64,3.32,3.21-1.13,7.61-3.83,10.4-10.32a129.34,129.34,0,0,0,7.7-26.16A142.77,142.77,0,0,0,407.63,521a25.59,25.59,0,0,0,10.83,2.89,15.16,15.16,0,0,0,6-1.2c6.4-2.71,8.38-8.6,9.32-11.43.2-.57.52-1.4.24-1.34a5,5,0,0,1,.71-.22c2.46-.6,10.31.09,16,.6,17.64,1.55,39.58,3.47,52.06-9,12.92-12.91,8.53-32.33,5-47.93-1-4.43-2.47-10.9-2.44-13.79a43.92,43.92,0,0,1,4.42-1.54c5.12-1.56,12.12-3.71,15.54-10.83,1.47-3.06,2.66-8.08.05-14.66A130.23,130.23,0,0,0,512,388a138,138,0,0,0,18.67-5c4.39-1.55,10.53-4.35,13.09-10.7s-.16-12-1.48-14.68c-.26-.52-.64-1.41-.78-1.12a4.1,4.1,0,0,1,.34-.66c1.34-2.17,7.37-7.23,11.77-10.92C567.13,333.56,584,319.39,584,301.74,584,283.48,567.17,272.85,553.65,264.31Z"/><path class="cls-2" d="M566.9,263.55c-4.06-2.56-10-6.3-12.14-8.5a44.14,44.14,0,0,1,2.16-4.46c2.65-5,6.28-11.84,3.51-19.72-1.18-3.38-4-8-10.93-11a139,139,0,0,0-29.24-8.43,150.39,150.39,0,0,0,12-20.37c2.13-4.45,4.62-11.13,1.79-17.8s-9.1-8.86-12.09-9.87c-.58-.2-1.49-.49-1.42-.25a5.71,5.71,0,0,1-.23-.76c-.62-2.62.11-10.91.63-17,1.63-18.65,3.66-41.86-9.55-55.06-13.67-13.66-34.18-9-50.69-5.29-4.64,1.05-11.4,2.58-14.5,2.58h-.08A44.46,44.46,0,0,1,444.49,83c-1.65-5.41-3.92-12.81-11.45-16.43-3.23-1.55-8.55-2.82-15.51-.06a137.14,137.14,0,0,0-25.54,14,148.23,148.23,0,0,0-5.59-21.19c-1.64-4.64-4.61-11.12-11.33-13.85s-12.7.17-15.52,1.58c-.57.29-1.4.71-1.18.83a4.35,4.35,0,0,1-.7-.36C355.38,46.05,350,39.68,346.12,35c-12-14.34-27-32.19-45.68-32.19-19.32,0-30.55,17.8-39.58,32.1-2.56,4.06-6.3,10-8.5,12.14a44.15,44.15,0,0,1-4.46-2.16c-5-2.65-11.82-6.3-19.71-3.51-3.39,1.19-8,4-11,10.93a138.58,138.58,0,0,0-8.38,28.92A154.33,154.33,0,0,0,186.6,67.94c-4.44-2.12-11.12-4.62-17.81-1.78s-8.85,9.09-9.86,12.08c-.19.6-.51,1.5-.25,1.42a5.42,5.42,0,0,1-.77.23c-2.63.63-10.92-.11-17-.63-18.66-1.63-41.85-3.64-55,9.55-13.67,13.66-9,34.2-5.29,50.7,1.06,4.69,2.61,11.52,2.58,14.58a44.64,44.64,0,0,1-4.68,1.63c-5.41,1.65-12.81,3.92-16.43,11.45-1.55,3.23-2.82,8.55-.06,15.51A137.71,137.71,0,0,0,76.26,208.6a146.34,146.34,0,0,0-19.75,5.27c-4.64,1.64-11.12,4.61-13.85,11.33s.17,12.69,1.58,15.52c.28.55.63,1.46.83,1.18a5.16,5.16,0,0,1-.37.7c-1.41,2.29-7.79,7.64-12.45,11.55-14.33,12-32.17,27-32.17,45.67,0,19.32,17.8,30.56,32.1,39.59,4.06,2.56,10,6.3,12.13,8.49a44.2,44.2,0,0,1-2.16,4.46c-2.65,5-6.28,11.84-3.51,19.72,1.18,3.38,4,8,10.93,11a139,139,0,0,0,29.24,8.43,150.49,150.49,0,0,0-12,20.37c-2.13,4.45-4.62,11.13-1.79,17.8s9.1,8.86,12.09,9.87c.59.2,1.48.5,1.42.25a5.69,5.69,0,0,1,.23.76c.62,2.62-.11,10.91-.63,17-1.63,18.65-3.66,41.86,9.55,55.06,13.64,13.67,34.18,9,50.69,5.29,4.65-1.05,11.4-2.58,14.5-2.58H153a46.46,46.46,0,0,1,1.63,4.67c1.65,5.41,3.92,12.81,11.45,16.43a17.28,17.28,0,0,0,7.51,1.68,21.45,21.45,0,0,0,8-1.63,139.76,139.76,0,0,0,27.11-15,149.38,149.38,0,0,0,5.8,22.13c1.64,4.65,4.61,11.14,11.33,13.86s12.71-.17,15.52-1.58c.57-.29,1.4-.7,1.18-.83a4.34,4.34,0,0,1,.7.36c2.29,1.42,7.64,7.8,11.55,12.45,12,14.34,27,32.19,45.68,32.19,19.32,0,30.55-17.8,39.58-32.1,2.56-4.06,6.3-10,8.5-12.14a43.21,43.21,0,0,1,4.45,2.16c5,2.65,11.84,6.3,19.72,3.51,3.39-1.19,8-4,11-10.92a136.79,136.79,0,0,0,8.14-27.67A151,151,0,0,0,412.47,535a27.07,27.07,0,0,0,11.45,3.05,16,16,0,0,0,6.35-1.26c6.77-2.86,8.86-9.1,9.86-12.09.21-.6.55-1.48.25-1.42a5.28,5.28,0,0,1,.76-.23c2.6-.63,10.9.1,17,.63,18.65,1.64,41.86,3.67,55.06-9.55,13.67-13.65,9-34.19,5.29-50.69-1.06-4.69-2.61-11.53-2.58-14.59a46.43,46.43,0,0,1,4.67-1.63c5.41-1.65,12.81-3.92,16.43-11.45,1.55-3.23,2.82-8.55.06-15.51a137.73,137.73,0,0,0-14.23-25.94,146,146,0,0,0,19.74-5.27c4.65-1.64,11.13-4.6,13.85-11.32s-.16-12.7-1.57-15.52c-.28-.55-.68-1.49-.83-1.18a4.34,4.34,0,0,1,.36-.7c1.42-2.29,7.79-7.64,12.44-11.55,14.34-12,32.19-27,32.19-45.68C599,283.82,581.2,272.58,566.9,263.55ZM395.66,108.83A148.11,148.11,0,0,1,421,92.52c2.18,6.75,6.42,16.85,18.51,19.65,7.79,1.79,16.56-.19,26.7-2.48,9.35-2.12,23.47-5.31,27.3-1.48,4.89,4.89,3.24,23.76,2.26,35-.86,9.87-1.61,18.39-.06,25,2.13,9,7.1,13.67,11.58,16.27a162.64,162.64,0,0,1-15.77,23.36c-15.72-1.17-32.06-1.42-48.16-1.42-21.3,0-41.42,5.47-59.66,13.69l-.86-.79A124.33,124.33,0,0,0,362,203.87a122.78,122.78,0,0,0-36.59-14.34c5.87-14.52,14-28.31,25.37-39.7,6.82-6.82,13.76-13.62,20.73-20.15C379.55,122.17,387.62,115.06,395.66,108.83Zm2.4,201.69a98.63,98.63,0,0,1-96,98.42c-.87,0-1.71.13-2.58.13-.42,0-.82-.06-1.23-.06a98.92,98.92,0,0,1-55.76-18.23,99.23,99.23,0,0,1-15.47-13.69c-1.28-1.4-2.59-2.76-3.79-4.23a98.88,98.88,0,0,1-11-16.64,97.72,97.72,0,0,1-10.67-34.73,98.89,98.89,0,0,1-.65-11c0-1.35.15-2.67.2-4a97.55,97.55,0,0,1,90.91-94.16c2.46-.19,4.93-.38,7.44-.38,2,0,4,.18,6,.3a98.53,98.53,0,0,1,92.4,95.35C397.95,308.6,398.07,309.54,398.07,310.52Zm-160-242.28c6.32,3.23,16.45,7.37,27,.8,6.78-4.23,11.58-11.83,17.14-20.64,5.11-8.1,12.84-20.34,18.26-20.34,6.91,0,19.09,14.51,26.37,23.18,6.37,7.58,11.86,14.13,17.61,17.68,7.84,4.85,14.69,4.65,19.7,3.32a158.82,158.82,0,0,1,5.1,25.7C356.86,108.49,344.73,120.24,333,132c-15.83,15.83-26.45,35-33.54,54.76-.33,0-.66,0-1,.05-7.09-20.29-17.87-40.1-34.13-56.36-10.66-10.67-21.66-21.37-32.86-31.19C232.8,88,234.88,77.43,238.06,68.23ZM105.22,133.95c-2.12-9.35-5.31-23.48-1.48-27.31,4.89-4.89,23.76-3.23,35-2.26,9.89.86,18.42,1.61,25,.06,9-2.12,13.68-7.09,16.29-11.57A166.89,166.89,0,0,1,205.15,110c8.06,6.49,16.13,13.79,24.11,21.4,5.79,5.52,11.54,11.2,17.21,16.87,11.85,11.85,20.16,26.32,26.07,41.53A122.82,122.82,0,0,0,238.46,203a124.26,124.26,0,0,0-20.79,14.93l-.46-.22.21.44a124.64,124.64,0,0,0-17.73,19.51,123.28,123.28,0,0,0-18.21,35.65c-13.22-5.74-25.69-13.47-36.13-23.92-6.78-6.78-13.53-13.67-20-20.6-7.5-8-14.61-16-20.84-24.07A148.58,148.58,0,0,1,88,179.16c6.76-2.19,16.86-6.42,19.65-18.52C109.49,152.86,107.51,144.09,105.22,133.95ZM65.45,362.22c3.23-6.32,7.39-16.46.81-27-4.23-6.77-11.83-11.57-20.63-17.13-8.1-5.11-20.35-12.85-20.35-18.26,0-6.91,14.5-19.09,23.17-26.36C56,267.1,62.6,261.6,66.15,255.85,71,248,70.8,241.18,69.47,236.16a155.93,155.93,0,0,1,24.23-4.91c10.49,12.26,22.15,24.3,33.83,36,14.24,14.24,31.21,24.23,48.83,31.27-.17,1.72-.17,3.49-.26,5.23-.12,2.26-.34,4.5-.34,6.79A127.15,127.15,0,0,0,189,365.92a110.79,110.79,0,0,1-33.34,5.43c-9,0-18.09-.08-27-.34-11-.32-21.85-.95-32-2.17C85.24,367.48,74.67,365.41,65.45,362.22Zm139.66,130.6C196,500,186.93,506.14,178,510.46c-2.18-6.76-6.41-16.86-18.51-19.66a29.35,29.35,0,0,0-6.58-.7c-6.07,0-12.74,1.51-20.13,3.18-9.35,2.11-23.48,5.3-27.3,1.48-4.89-4.89-3.24-23.76-2.26-35,.86-9.87,1.61-18.39.06-25-2.13-9-7.1-13.67-11.58-16.27a162.76,162.76,0,0,1,15.76-23.35c15.73,1.17,32.06,1.42,48.17,1.42A139.13,139.13,0,0,0,203,387.84a118.09,118.09,0,0,0,30.22,27,123,123,0,0,0,32.68,14.66,109.1,109.1,0,0,1-17.65,23.61c-6.26,6.25-12.61,12.5-19,18.54C221.25,479.25,213.17,486.46,205.11,492.82ZM362.79,534.6c-6.32-3.22-16.48-7.37-27-.8-6.78,4.23-11.58,11.83-17.14,20.64-5.11,8.1-12.84,20.35-18.26,20.35-6.91,0-19.09-14.51-26.37-23.18-6.37-7.58-11.86-14.14-17.61-17.69a25.52,25.52,0,0,0-13.58-4.13,23.73,23.73,0,0,0-6.12.81,161.28,161.28,0,0,1-5.27-26.95c11.8-10.19,23.38-21.43,34.63-32.68a138,138,0,0,0,26.09-37c2.44.14,4.85.37,7.32.37,2.83,0,5.6-.24,8.38-.42a138.77,138.77,0,0,0,26.87,38.66c11.17,11.17,22.69,22.38,34.44,32.56A148.22,148.22,0,0,1,362.79,534.6ZM493.85,469c2.12,9.35,5.31,23.47,1.48,27.3-4.89,4.9-23.76,3.25-35,2.26-9.88-.87-18.4-1.61-25-.06-9,2.13-13.68,7.09-16.28,11.57a162.63,162.63,0,0,1-23.48-15.86c-8-6.36-16.09-13.54-24.07-21.08-6.37-6-12.7-12.25-18.93-18.47a109.83,109.83,0,0,1-18.68-25.37,123.15,123.15,0,0,0,33.46-15.42,124.54,124.54,0,0,0,20.88-17.3q2.95-3,5.69-6.26a124.14,124.14,0,0,0,14.74-21.63,122.83,122.83,0,0,0,12.69-37.3,113.74,113.74,0,0,1,32.34,22.15c6.78,6.78,13.54,13.67,20,20.61,7.5,8,14.61,16,20.83,24.07A148.37,148.37,0,0,1,511,423.81c-6.76,2.18-16.86,6.41-19.66,18.51C489.58,450.11,491.56,458.87,493.85,469ZM550.6,329.5c-7.58,6.37-14.13,11.86-17.68,17.61-4.85,7.86-4.65,14.69-3.32,19.69a155.69,155.69,0,0,1-24.22,4.92c-10.49-12.27-22.16-24.3-33.84-36-14.17-14.17-31-24.16-48.56-31.19-.08-1.75-.11-3.51-.27-5.23a121.31,121.31,0,0,0-21.51-59.17c13.33-5.23,27.54-8.53,42.21-8.53,9,0,18.09.08,27,.34,11,.32,21.85.94,32,2.16,11.34,1.36,21.91,3.43,31.13,6.62-3.23,6.32-7.39,16.46-.81,27,4.23,6.78,11.83,11.58,20.64,17.14,8.1,5.11,20.34,12.84,20.34,18.26C573.78,310,559.27,322.23,550.6,329.5Z"/><circle class="cls-3" cx="299.54" cy="248.43" r="17.69"/><circle class="cls-4" cx="299.54" cy="375.57" r="17.69"/><circle class="cls-5" cx="235.97" cy="310.07" r="17.69"/><circle class="cls-6" cx="363.1" cy="310.07" r="17.69"/><circle class="cls-7" cx="253.66" cy="357.88" r="17.69" transform="translate(-178.76 284.18) rotate(-45)"/><circle class="cls-8" cx="343.56" cy="267.98" r="17.69" transform="translate(-88.86 321.42) rotate(-45)"/><circle class="cls-9" cx="253.66" cy="267.98" r="17.69" transform="translate(-115.19 257.85) rotate(-45)"/><circle class="cls-10" cx="343.56" cy="357.88" r="17.69" transform="translate(-152.43 347.75) rotate(-45)"/></svg>