<?xml version="1.0" encoding="UTF-8" standalone="no"?>
<svg width="181px" height="70px" viewBox="0 0 181 70" version="1.1" xmlns="http://www.w3.org/2000/svg" xmlns:xlink="http://www.w3.org/1999/xlink">
  <!-- Generator: Sketch 47.1 (45422) - http://www.bohemiancoding.com/sketch -->
  <title>Group 15</title>
  <desc>Created with Sketch.</desc>
  <defs>
    <polygon id="path-1" points="0 38.9088 111.994524 38.9088 111.994524 -0.0002 0 -0.0002"></polygon>
  </defs>
  <g id="Page-1" stroke="none" stroke-width="1" fill="none" fill-rule="evenodd">
    <g id="订单支付-优惠券-" transform="translate(-329.000000, -984.000000)">
      <g id="Group-15" transform="translate(329.000000, 984.000000)">
        <rect id="Rectangle-8-Copy" fill="#FFFFFF" x="0" y="0" width="181" height="70" rx="3"></rect>
        <g id="微信支付icon" transform="translate(35.000000, 16.000000)">
          <g id="Page-1">
            <path d="M20.8680391,-0.0002 C27.7642524,-0.0002 33.8794524,2.9118 37.6784924,7.3998 C37.7312569,7.4618 16.3492124,19.1433 16.3492124,19.1433 L9.30466133,13.8078 L16.2242702,25.3928 C16.2242702,25.3928 37.7536569,8.4018 38.1384391,8.0153 C38.5227236,8.4018 39.6093724,10.1643 39.6870258,10.3043 C41.0001636,12.6823 41.7358791,15.3478 41.7358791,18.1628 C41.7358791,28.1943 32.393088,36.3263 20.8680391,36.3263 C18.460288,36.3263 16.1481102,35.9713 13.9962169,35.3183 C13.9096036,35.2923 11.995648,34.6608 11.995648,34.6608 L5.84411022,38.9088 L7.58035911,32.2193 C7.58035911,32.2193 6.94071467,31.7078 6.35881244,31.2173 C2.43781689,27.9148 0.000199111111,23.2868 0.000199111111,18.1628 C0.000199111111,8.1318 9.34299022,-0.0002 20.8680391,-0.0002 Z" id="Fill-1" fill="#48A443"></path>
            <path d="M58.9203627,21.8553 C59.6640427,20.2838 60.118016,18.0508 60.2817849,15.1563 L57.9850382,15.1563 C57.9576604,15.2213 57.9163449,15.3213 57.8620871,15.4528 C57.7744782,15.6778 57.7087716,15.8483 57.6654649,15.9638 C57.9223182,18.5018 58.3404516,20.4658 58.9203627,21.8553 L58.9203627,21.8553 Z M58.2642916,11.2588 L59.1254471,11.4073 C58.8576427,12.4678 58.5649493,13.4648 58.2473671,14.3983 L61.9802027,14.3983 L61.9802027,15.1563 L61.0861938,15.1563 C60.8611982,18.5018 60.2787982,21.0508 59.3389938,22.8028 C59.8965049,23.9073 60.7661227,25.0518 61.9473493,26.2383 C61.7557049,26.4363 61.5536071,26.6668 61.3400604,26.9303 C60.2743182,25.7988 59.450496,24.7028 58.8710827,23.6433 C58.236416,24.6983 57.3015893,25.8238 56.0656071,27.0213 C55.9018382,26.8398 55.6882916,26.6318 55.4254649,26.3953 C56.8038116,25.1153 57.8128071,23.9118 58.4529493,22.7858 C57.7854293,21.3248 57.3319538,19.4733 57.0910293,17.2323 C57.0746027,17.2598 57.0527004,17.3018 57.0253227,17.3563 C56.7306382,17.9548 56.489216,18.4078 56.3035449,18.7158 C56.1119004,18.4353 55.9207538,18.1993 55.7291093,18.0068 C56.8501049,16.1443 57.6953316,13.8953 58.2642916,11.2588 L58.2642916,11.2588 Z M50.503936,18.9713 L55.5817671,18.9713 L55.5817671,18.1883 L50.503936,18.1883 L50.503936,18.9713 Z M52.7270116,11.4893 L53.514496,11.4893 L53.514496,15.7243 L55.163136,15.7243 L55.163136,12.7253 L55.9506204,12.7253 L55.9506204,16.4743 L50.2903893,16.4743 L50.2903893,12.7418 L51.0778738,12.7418 L51.0778738,15.7243 L52.7270116,15.7243 L52.7270116,11.4893 Z M54.1705671,21.5008 L51.5457849,21.5008 L51.5457849,22.2918 C51.5512604,22.3903 51.5537493,22.5313 51.5537493,22.7118 C51.5537493,24.3708 50.9852871,25.6648 49.8473671,26.5928 C49.6781227,26.3788 49.4730382,26.1778 49.2326116,25.9908 C49.8832071,25.3983 50.293376,24.8573 50.4631182,24.3678 C50.6597404,23.8903 50.7528249,23.0963 50.741376,21.9873 L50.741376,20.7428 L54.9744782,20.7428 L54.9744782,23.9813 C55.0182827,23.9423 55.0839893,23.8848 55.1715982,23.8073 C55.7619627,23.2858 56.215936,22.8708 56.5330204,22.5633 C56.5663716,22.7393 56.6096782,22.9568 56.6644338,23.2148 C56.6913138,23.3243 56.7112249,23.4098 56.7216782,23.4698 C55.5568782,24.4753 54.7723804,25.1863 54.3676871,25.6043 L53.7688604,24.8043 C53.9326293,24.6073 54.0391538,24.4148 54.0889316,24.2283 C54.1431893,24.0418 54.1705671,23.7663 54.1705671,23.4043 L54.1705671,21.5008 Z M46.5909049,16.2683 C46.4485404,16.0213 46.2817849,15.7683 46.0906382,15.5108 C47.3375716,14.2968 48.3276516,12.8788 49.0598827,11.2588 L49.8150116,11.7118 C48.9777493,13.4483 47.9035449,14.9668 46.5909049,16.2683 L46.5909049,16.2683 Z M46.3206116,21.5828 C46.1777493,21.2538 46.0279182,20.9793 45.8691271,20.7588 C47.1374649,19.3308 48.174336,17.6248 48.9777493,15.6423 L49.7493049,16.0458 C49.4536249,16.7323 49.0738204,17.4928 48.608896,18.3278 L48.608896,27.1368 L47.7965227,27.1368 L47.7965227,19.6463 C47.4027804,20.2568 46.910976,20.9023 46.3206116,21.5828 L46.3206116,21.5828 Z" id="Fill-3" fill="#000000"></path>
            <mask id="mask-2" fill="white">
              <use xlink:href="#path-1"></use>
            </mask>
            <g id="Clip-6"></g>
            <path d="M69.4205867,25.3153 L76.6478222,25.3153 L76.6478222,22.2918 L69.4205867,22.2918 L69.4205867,25.3153 Z M68.5504711,21.4843 L77.5164444,21.4843 L77.5164444,27.1033 L76.6473244,27.1033 L76.6473244,26.1228 L69.4205867,26.1228 L69.4205867,27.1033 L68.5504711,27.1033 L68.5504711,21.4843 Z M68.3787378,19.6308 L77.6727467,19.6308 L77.6727467,18.7978 L68.3787378,18.7978 L68.3787378,19.6308 Z M68.3787378,16.9603 L77.6727467,16.9603 L77.6727467,16.1363 L68.3787378,16.1363 L68.3787378,16.9603 Z M72.0453689,11.5468 L72.8652089,11.2088 C73.19424,11.8408 73.50784,12.4918 73.8089956,13.1618 L73.0872178,13.4668 L78.6493867,13.4668 L78.6493867,14.2908 L67.4762667,14.2908 L67.4762667,13.4668 L72.9473422,13.4668 C72.5974044,12.6708 72.2967467,12.0303 72.0453689,11.5468 L72.0453689,11.5468 Z M63.18592,19.9678 C63.0545067,19.6218 62.9151289,19.3113 62.7677867,19.0368 C64.3039289,16.7908 65.4911289,14.2138 66.3278933,11.3083 L67.2054756,11.5468 C66.7629511,12.8708 66.2756267,14.1393 65.7454933,15.3533 L65.7454933,27.1033 L64.8679111,27.1033 L64.8679111,17.1833 C64.3099022,18.2653 63.7489067,19.1933 63.18592,19.9678 L63.18592,19.9678 Z" id="Fill-5" fill="#000000" mask="url(#mask-2)"></path>
            <path d="M91.7163022,18.05645 L83.89024,18.05645 C84.7767822,20.44045 86.0018133,22.16295 87.5653333,23.22245 C89.3817244,22.00395 90.7650489,20.28095 91.7163022,18.05645 L91.7163022,18.05645 Z M87.19648,11.19295 L88.1069156,11.19295 L88.1069156,13.56645 L95.2764089,13.56645 L95.2764089,14.43045 L88.1069156,14.43045 L88.1069156,17.21545 L92.7252978,17.21545 L92.7252978,18.08945 C91.7411911,20.44045 90.2891733,22.32995 88.3692444,23.75845 C89.7968711,24.72545 92.11552,25.49095 95.3256889,26.05745 C95.3147378,26.07395 95.2983111,26.09545 95.2764089,26.12295 C95.0464356,26.41995 94.8692267,26.68945 94.7432889,26.93045 C91.2434133,26.21095 88.84512,25.35745 87.5494044,24.36795 C85.9087289,25.46645 83.4935111,26.41195 80.3057422,27.20295 C80.20768,26.98345 80.0294756,26.69145 79.7726222,26.32895 C82.8349511,25.61495 85.1650489,24.75845 86.76192,23.75845 C85.0988444,22.44045 83.8115911,20.53995 82.8976711,18.05645 L81.3316622,18.05645 L81.3316622,17.21545 L87.19648,17.21545 L87.19648,14.43045 L79.7233422,14.43045 L79.7233422,13.56645 L87.19648,13.56645 L87.19648,11.19295 Z" id="Fill-7" fill="#000000" mask="url(#mask-2)"></path>
            <path d="M101.8639,18.5672 L102.601607,18.0067 C103.608114,19.1607 104.718158,20.5037 105.932736,22.0357 L105.120363,22.6627 C103.867456,20.9872 102.782798,19.6217 101.8639,18.5672 L101.8639,18.5672 Z M101.125696,15.2547 L108.680469,15.2547 L108.680469,11.3572 L109.607829,11.3572 L109.607829,15.2547 L111.994674,15.2547 L111.994674,16.1367 L109.607829,16.1367 L109.607829,24.5572 C109.66806,26.0957 108.912932,26.8592 107.343438,26.8482 C106.616185,26.8697 105.858567,26.8817 105.071083,26.8817 C105.016327,26.5017 104.943154,26.1592 104.849572,25.8512 C105.730638,25.8952 106.481785,25.9167 107.1055,25.9167 C108.204594,25.9557 108.729749,25.4832 108.680469,24.4997 L108.680469,16.1367 L101.125696,16.1367 L101.125696,15.2547 Z M96.7696427,20.0837 C96.6486827,19.6822 96.5207538,19.3172 96.3838649,18.9872 C98.0578916,16.7517 99.3620693,14.1817 100.296896,11.2752 L101.273038,11.5467 C100.814087,12.7937 100.277483,14.0572 99.665216,15.3377 L99.665216,27.1032 L98.7547804,27.1032 L98.7547804,17.0592 C98.0987093,18.2077 97.4361671,19.2157 96.7696427,20.0837 L96.7696427,20.0837 Z" id="Fill-8" fill="#000000" mask="url(#mask-2)"></path>
          </g>
        </g>
      </g>
    </g>
  </g>
</svg>