<?xml version="1.0" encoding="utf-8"?>
<!-- Generator: Adobe Illustrator 22.1.0, SVG Export Plug-In . SVG Version: 6.00 Build 0)  -->
<svg version="1.1" id="图层_1" xmlns="http://www.w3.org/2000/svg" xmlns:xlink="http://www.w3.org/1999/xlink" x="0px" y="0px"
	 viewBox="0 0 253 70" style="enable-background:new 0 0 253 70;" xml:space="preserve">
<style type="text/css">
	.st0{fill:#EA4335;}
	.st1{fill:#333333;}
</style>
<title>Group 14</title>
<desc>Created with Sketch.</desc>
<g id="Page-1_1_">
	<g id="订单支付-优惠券-" transform="translate(-586.000000, -984.000000)">
		<g id="Group-14" transform="translate(586.000000, 984.000000)">
			<g id="Group-12" transform="translate(42.000000, 15.000000)">
				<g id="转账icon2">
					<g id="Page-1">
						<path id="Fill-3" class="st0" d="M2.2,22.7c1.4,9,9.3,15.8,18.8,15.8c9.6,0,17.4-6.9,18.8-15.8h1.4C39.9,32.5,31.3,40,21,40
							c-8.7,0-16.1-5.3-19-12.7L0,28c0,0,1.2-5.2,1.4-5.2C1.4,22.7,2.2,22.7,2.2,22.7"/>
						<path id="Fill-1" class="st0" d="M21.2,17.4L29,9.8c0.3-0.3,0.7-0.3,1,0s0.3,0.7,0,1l-7.3,7.1h6.4c0.2,0,0.4,0.2,0.4,0.3v0.7
							c0,0.1,0,0.2-0.1,0.2c-0.1,0.1-0.2,0.1-0.2,0.1h-7.4v4.1h7.4c0.2,0,0.4,0.2,0.4,0.3v0.7c0,0.1,0,0.2-0.1,0.2
							c-0.1,0.1-0.2,0.1-0.2,0.1h-7.4v6.5c0,0.2-0.2,0.3-0.4,0.3h-0.7c-0.2,0-0.4-0.2-0.4-0.3v-6.5H13c-0.1,0-0.2,0-0.2-0.1
							c-0.1-0.1-0.1-0.2-0.1-0.2v-0.7c0-0.2,0.2-0.3,0.4-0.3h7.4v-4.1h-7.4c-0.1,0-0.2,0-0.2-0.1c-0.1-0.1-0.1-0.2-0.1-0.2v-0.7
							c0-0.2,0.2-0.3,0.4-0.3h6.4l-7.2-7.1c-0.3-0.3-0.3-0.7,0-1s0.7-0.3,1,0l7.7,7.5c0.1,0.1,0.2,0.3,0.2,0.5H21
							C21,17.7,21.1,17.5,21.2,17.4"/>
						<path id="Fill-6" class="st0" d="M39.8,17.2C38.4,8.3,30.5,1.4,21,1.4c-9.6,0-17.4,6.9-18.8,15.8H0.8C2.1,7.5,10.7,0,21,0
							c8.7,0,16.1,5.3,19,12.7l2-0.7c0,0-1.2,5.2-1.4,5.2H39.8"/>
					</g>
				</g>
			</g>
		</g>
	</g>
</g>
<g>
	<path class="st1" d="M103,17.4c1.1,1.3,2.1,2.1,3.5,3.1c1.4,0.9,2.6,1.5,4.4,2.1c-0.4,0.5-0.4,0.6-0.7,1.1c-1.9-0.9-3-1.4-4.3-2.3
		c-1.5-1-2.4-1.8-3.6-3.2c-1.4,1.5-2.4,2.4-3.8,3.4c-0.8,0.6-1.3,0.9-2.4,1.5c-0.8,0.4-0.8,0.4-1.2,0.7c-0.2-0.5-0.4-0.8-0.7-1.1
		c1.9-0.8,3.3-1.7,4.7-2.8c1.5-1.2,2.3-2.1,3.2-3.4l1.1,0.6L103,17.4z M99.3,28c-1.1,1.9-2.3,3.3-3.9,4.5c-0.3-0.4-0.4-0.6-0.8-0.9
		c1.8-1.3,2.8-2.4,3.7-4.2L99.3,28z M99.4,23.3c-0.7,0-1.1,0-1.6,0.1v-1.2c0.4,0.1,0.8,0.1,1.6,0.1h6c0.7,0,1.1,0,1.6-0.1v1.2
		c-0.5-0.1-0.8-0.1-1.6-0.1H103v2.5h5.2c0.8,0,1.3,0,1.8-0.1v1.2c-0.5-0.1-1.1-0.1-1.8-0.1H103v5c0,1.1-0.4,1.3-2.1,1.3
		c-0.4,0-1,0-1.6-0.1c-0.1-0.5-0.1-0.7-0.3-1.2c0.8,0.1,1.4,0.2,2.1,0.2s0.8-0.1,0.8-0.5v-4.8h-5.2c-0.7,0-1.3,0-1.8,0.1v-1.2
		c0.5,0.1,1.1,0.1,1.8,0.1h5.2v-2.5L99.4,23.3L99.4,23.3z M109,32.6c-1.1-1.5-2-2.6-3.9-4.5l0.9-0.6c1.2,1.2,2.2,2.3,3.9,4.4
		L109,32.6z"/>
	<path class="st1" d="M119.9,27.8c-0.9-0.7-1.8-1.4-3.3-2.3c-0.8,0.8-1.7,1.4-2.8,2.2c0.2,0,0.6,0,1.1,0h3c0.7,0,0.9,0,1.3,0
		c-0.1,0.5-0.1,0.9-0.1,1.6v2c0,0.7,0,1.3,0.1,1.7h-1.1v-0.9h-3.5v1.1h-1.1c0.1-0.5,0.1-1.1,0.1-1.6v-2.3c0-0.6,0-1.1-0.1-1.5
		c-0.3,0.2-0.5,0.3-1.1,0.6c-0.2-0.4-0.3-0.6-0.6-0.9c1.5-0.6,2.8-1.4,3.9-2.4c-0.2-0.1-0.9-0.5-1.9-1c-0.5,0.5-0.6,0.7-1.1,1
		c-0.2-0.4-0.4-0.6-0.7-0.8c0.8-0.5,1.3-1.1,2-2c0.6-0.9,0.8-1.2,1.2-2.2l1,0.3c-0.1,0.1-0.1,0.1-0.2,0.3c-0.1,0.1-0.1,0.3-0.4,0.7
		h1.9c0.4,0,0.8,0,1-0.1l0.6,0.6c-0.2,0.2-0.2,0.2-0.4,0.6c-0.6,1-1,1.5-1.6,2.2c1.6,0.9,2.4,1.4,3.1,2.1L119.9,27.8z M118.7,18.9
		c0.8,0,1.2,0,1.4-0.1c0,0.3-0.1,0.6-0.1,1.1v0.6c0,0.4,0,0.8,0.1,1h-1v-1.7h-5.6v1.9h-1.1c0.1-0.3,0.1-0.6,0.1-1V20
		c0-0.4,0-0.7-0.1-1.1c0.3,0,0.6,0.1,1.5,0.1h2.1c-0.2-0.5-0.5-0.9-0.8-1.4l0.8-0.5c0.5,0.6,0.7,1,1.1,1.8H118.7z M115.2,22.3
		c-0.2,0.4-0.5,0.7-0.7,1c0.3,0.1,0.3,0.1,0.6,0.3c0.3,0.1,0.3,0.2,1.4,0.7c0.6-0.7,1-1.1,1.5-2H115.2z M114.6,31.1h3.5v-2.5h-3.5
		V31.1z M125,22.7c-0.1,0.4-0.1,0.9-0.1,1.6v2.5c0,1.1,0,1.6-0.1,2.1c-0.2,1.1-0.9,2.1-1.9,2.9c-0.7,0.5-1.3,0.8-2.6,1.4
		c-0.2-0.5-0.4-0.7-0.8-1c1.7-0.5,2.6-0.9,3.3-1.8c0.8-0.8,1-1.6,1-3.6v-2.5c0-0.6,0-1.2-0.1-1.6C123.7,22.7,125,22.7,125,22.7z
		 M122.1,18.7c-0.9,0-1.3,0-1.7,0.1v-1.2c0.5,0.1,0.9,0.1,1.7,0.1h4.6c0.8,0,1.3,0,1.7-0.1v1.2c-0.5-0.1-0.9-0.1-1.6-0.1h-1.7
		c-0.2,0.6-0.3,0.8-0.8,2h1.7c0.8,0,1.3,0,1.8-0.1c-0.1,0.3-0.1,0.7-0.1,1.3v5.5c0,0.8,0,1.2,0.1,1.8h-1.3c0.1-0.6,0.1-1,0.1-1.8
		v-5.7H122v5.7c0,0.8,0,1.2,0.1,1.8h-1.2c0.1-0.6,0.1-1,0.1-1.8V22c0-0.6,0-1-0.1-1.3c0.5,0,0.9,0.1,1.7,0.1h0.6
		c0.4-0.8,0.6-1.5,0.7-2L122.1,18.7L122.1,18.7z M127.9,33.2c-1-1.1-1.5-1.5-3.2-2.8l0.8-0.7c1.3,0.9,2.3,1.8,3.3,2.6L127.9,33.2z"
		/>
	<path class="st1" d="M144,19.7c0.8,0,1.3,0,1.9-0.1v1.3c-0.5-0.1-1.1-0.1-1.9-0.1h-5.3v2.8h2.4c0.8,0,1.2,0,1.6-0.1l0.8,0.8
		c-0.2,0.2-0.3,0.4-0.6,0.9c-0.9,1.4-2.1,2.7-3.6,3.9c2,1.3,4,2.1,7,2.7c-0.3,0.4-0.5,0.7-0.7,1.2c-3-0.8-5.1-1.7-7.2-3.2
		c-2.2,1.6-4.4,2.5-7.3,3.1c-0.2-0.5-0.3-0.7-0.6-1.1c2.7-0.5,5.1-1.4,7-2.7c-0.8-0.7-1.5-1.4-2.1-2.1c-0.6-0.8-0.8-1.2-1.4-2.3
		h-0.2c-0.8,0-1.3,0-1.9,0.1v-1.2c0.5,0.1,1.1,0.1,1.9,0.1h3.7v-2.9h-5.1c-0.8,0-1.3,0-1.9,0.1v-1.3c0.5,0.1,1.1,0.1,1.9,0.1h5.1
		v-1.1c0-0.7,0-1.1-0.1-1.6h1.4c-0.1,0.4-0.1,0.8-0.1,1.6v1.1C138.7,19.7,144,19.7,144,19.7z M135.3,24.6c0.8,1.6,1.6,2.6,3.1,3.8
		c1.6-1.2,2.4-2.2,3.5-3.8H135.3z"/>
	<path class="st1" d="M151.8,31.1c0,0.8,0,1.5,0.1,2.1h-1.3c0.1-0.6,0.1-1.2,0.1-2.2v-6c0-0.8,0-1.3,0.1-2.2c-0.7,1.2-1.1,1.8-2,2.8
		c-0.1-0.1-0.1-0.2-0.1-0.2c-0.2-0.4-0.2-0.4-0.7-0.8c1.6-1.7,2.6-3.2,3.6-5.4c0.5-1.1,0.7-1.7,0.8-2.3l1.3,0.4
		c-0.1,0.2-0.2,0.4-0.4,1s-0.8,1.9-1.4,2.9v9.9C151.9,31.1,151.8,31.1,151.8,31.1z M154.7,22.4c-0.8,0-1.4,0-1.9,0.1v-1.3
		c0.5,0.1,1.1,0.1,1.9,0.1h5.7v-2.1c0-0.8,0-1.6-0.1-2.1h1.4c-0.1,0.6-0.1,1.2-0.1,2.1v2.1h0.9c0.7,0,1.2,0,1.7-0.1v1.2
		c-0.6-0.1-1.1-0.1-1.7-0.1h-0.9v8.9c0,1.2-0.4,1.5-2,1.5c-0.7,0-1.4,0-2.2-0.1c-0.1-0.5-0.1-0.8-0.3-1.2c1.1,0.2,1.6,0.2,2.4,0.2
		c0.7,0,0.9-0.1,0.9-0.5v-8.8L154.7,22.4L154.7,22.4z M154.9,24c1.3,1.4,2,2.3,3,4l-1,0.8c-0.9-1.7-1.8-2.9-2.9-4.2L154.9,24z"/>
</g>
</svg>
