<?xml version="1.0" encoding="UTF-8" standalone="no"?>
<svg width="181px" height="70px" viewBox="0 0 181 70" version="1.1" xmlns="http://www.w3.org/2000/svg" xmlns:xlink="http://www.w3.org/1999/xlink">
  <!-- Generator: Sketch 47.1 (45422) - http://www.bohemiancoding.com/sketch -->
  <title>Group 16</title>
  <desc>Created with Sketch.</desc>
  <defs>
    <polygon id="path-1" points="5.74955698e-21 0.160314451 5.74955698e-21 35.7919075 36.4266636 35.7919075 36.4266636 0.160314451"></polygon>
    <polygon id="path-3" points="36.4266636 35.7919075 0 35.7919075 0 0.160397688 36.4266636 0.160397688"></polygon>
    <polygon id="path-5" points="0 35.8397688 104.986424 35.8397688 104.986424 0.208092486 0 0.208092486"></polygon>
  </defs>
  <g id="Page-1" stroke="none" stroke-width="1" fill="none" fill-rule="evenodd">
    <g id="订单支付-优惠券-" transform="translate(-84.000000, -786.000000)">
      <g id="Group-4" transform="translate(84.000000, 786.000000)">
        <g id="Group-16">
          <rect id="Rectangle-8" fill="#FFFFFF" x="0" y="0" width="181" height="70" rx="3"></rect>
          <g id="支付宝" transform="translate(38.000000, 17.000000)">
            <g id="Page-1">
              <g id="Group-3" transform="translate(0.000000, 0.047861)">
                <mask id="mask-2" fill="white">
                  <use xlink:href="#path-1"></use>
                </mask>
                <g id="Clip-2"></g>
                <path d="M29.9881485,22.5177711 C35.2368758,24.2384879 36.4266636,24.3300486 36.4266636,24.3300486 L36.4266636,5.86870751 C36.4266636,2.71360925 33.8156636,0.160314451 30.5952394,0.160314451 L5.83560303,0.160314451 C2.61220909,0.160314451 -6.36363636e-05,2.71360925 -6.36363636e-05,5.86870751 L-6.36363636e-05,30.0856786 C-6.36363636e-05,33.236615 2.61220909,35.7919908 5.83560303,35.7919908 L30.5952394,35.7919908 C33.8156636,35.7919908 36.4266636,33.236615 36.4266636,30.0856786 L36.4266636,29.8409618 C36.4266636,29.8409618 26.9469667,25.9741873 22.1610879,23.7220023 C18.9497848,27.5879445 14.8066333,29.9316902 10.5075727,29.9316902 C6.24563333,29.9316902 3.20360303,27.4924301 2.86102727,24.9287306 L2.86102727,24.9374705 C2.86102727,24.9374705 1.92493636,22.2876208 4.21011818,19.6092624 C4.96675455,18.721748 6.23948182,17.862326 8.22048182,17.3855861 C11.3202091,16.6395746 16.2560576,17.851089 20.8788152,19.3420717 C21.7105424,17.8454705 22.4111788,16.1948809 22.9325727,14.4356671 L8.67908788,14.4356671 L8.67908788,13.0218867 L16.0293,13.0218867 L16.0293,10.4921064 L7.12720909,10.4921064 L7.12720909,9.07936647 L16.0293,9.07936647 L16.0293,5.4675052 C16.0293,5.4675052 16.0293,4.8584185 16.6586636,4.8584185 L20.2509364,4.8584185 L20.2509364,9.07936647 L29.0507848,9.07936647 L29.0507848,10.4921064 L20.2509364,10.4921064 L20.2509364,13.0218867 L27.4359061,13.0218867 C26.7467242,15.7782798 25.7013909,18.3128462 24.3940879,20.5394358 C26.5715121,21.3108347 28.5313,22.0410312 29.9881485,22.5177711" id="Fill-1" fill="#239CC0" mask="url(#mask-2)"></path>
              </g>
              <g id="Group-6" transform="translate(0.000000, 0.047861)">
                <mask id="mask-4" fill="white">
                  <use xlink:href="#path-3"></use>
                </mask>
                <g id="Clip-5"></g>
                <path d="M36.4266636,29.8410451 L36.4266636,30.0857618 C36.4266636,33.2364902 33.8156636,35.792074 30.5933303,35.792074 L5.83560303,35.792074 C2.61220909,35.792074 -6.36363636e-05,33.2364902 -6.36363636e-05,30.0857618 L-6.36363636e-05,5.86879075 C-6.36363636e-05,2.71369249 2.61220909,0.160397688 5.83560303,0.160397688 L30.5933303,0.160397688 C33.8156636,0.160397688 36.4266636,2.71369249 36.4266636,5.86879075 L36.4266636,24.3309642 L36.4266636,29.8410451 Z" id="Fill-4" fill="#239EDA" mask="url(#mask-4)"></path>
              </g>
              <path d="M9.84325152,27.6094405 C4.17558485,27.6094405 2.50088788,23.2428277 5.30003939,20.853926 C6.23549394,20.0463191 7.9430697,19.6536486 8.85370606,19.5629202 C12.2194333,19.2387121 15.3361303,20.4949665 19.0145242,22.2512671 C16.4274939,25.549741 13.1372818,27.6094405 9.84325152,27.6094405 M29.9907364,22.581926 C28.5353727,22.1051861 26.579403,21.3733249 24.3996455,20.6033827 C25.7067364,18.3776254 26.7520697,15.8451399 27.4374333,13.0912439 L20.258403,13.0912439 L20.258403,10.5618798 L29.0546455,10.5618798 L29.0546455,9.14976416 L20.258403,9.14976416 L20.258403,4.93235376 L16.6701606,4.93235376 C16.0401606,4.93235376 16.0401606,5.54081618 16.0401606,5.54081618 L16.0401606,9.14976416 L7.14400909,9.14976416 L7.14400909,10.5618798 L16.0401606,10.5618798 L16.0401606,13.0912439 L8.69397879,13.0912439 L8.69397879,14.5041919 L22.9406758,14.5041919 C22.4186455,16.2607006 21.717797,17.9096254 20.8881909,19.4083075 C16.2654333,17.9160763 11.3338273,16.7072671 8.23388788,17.4503653 C6.25288788,17.9281457 4.97634242,18.7809087 4.22755455,19.6740416 C0.785039394,23.7707584 3.25370606,29.9916832 10.5231,29.9916832 C14.8200394,29.9916832 18.9593727,27.6471052 22.1683424,23.7867815 C26.9523121,26.0358451 36.4267061,29.8994983 36.4267061,29.8994983 L36.4267061,24.393163 C36.4267061,24.393163 35.2369182,24.3005618 29.9907364,22.581926" id="Fill-7" fill="#FFFFFF"></path>
              <path d="M90.1642848,5.80809017 L100.754648,5.80809017 L100.754648,7.86550058 L104.53783,7.86550058 L104.53783,5.80809017 L104.53783,5.42728092 L104.53783,5.41354682 C104.53783,4.86459884 104.098527,4.42094566 103.555921,4.41324624 L97.4355879,4.41324624 L97.4355879,2.49567399 L93.4759212,2.49567399 L93.4759212,4.41324624 L86.3789818,4.41324624 L86.3789818,5.11098035 L86.3789818,5.80809017 L86.3789818,7.86550058 L90.1642848,7.86550058 L90.1642848,5.80809017 Z" id="Fill-9" fill="#0E0E0E"></path>
              <polygon id="Fill-11" fill="#0E0E0E" points="67.2471121 2.67288555 63.3676273 11.6714289 66.3419909 11.6714289 66.3419909 22.3786197 69.5976273 22.3786197 69.5976273 8.17526705 68.4173848 8.17526705 70.867597 2.67288555"></polygon>
              <path d="M104.986255,21.9350705 L103.783103,17.9492671 C103.706315,17.6997642 103.47277,17.5166428 103.197436,17.5156023 L100.046588,17.5156023 L100.961042,20.5423075 L97.2582545,20.5423075 L97.2582545,14.6826312 L104.530406,14.6826312 L104.530406,13.2859145 L97.2582545,13.2859145 L97.2582545,10.5293133 L104.530406,10.5293133 L104.530406,9.13467746 L97.2582545,9.13467746 L93.6524061,9.13467746 L86.381103,9.13467746 L86.381103,10.5293133 L93.6524061,10.5293133 L93.6524061,13.2859145 L86.381103,13.2859145 L86.381103,14.6826312 L93.6524061,14.6826312 L93.6524061,20.5423075 L86.381103,20.5423075 L86.381103,21.9350705 L104.986255,21.9350705 Z" id="Fill-13" fill="#0E0E0E"></path>
              <path d="M74.8977727,9.62885549 L72.0810152,9.62885549 L74.2739242,16.4068439 L77.6082576,16.4068439 L75.5674394,10.0496185 C75.4446212,9.80053179 75.1905,9.63156069 74.8977727,9.62885549" id="Fill-15" fill="#0E0E0E"></path>
              <path d="M82.6965364,2.83627977 L79.3159606,2.83627977 L79.3159606,6.30268439 L70.9815061,6.30268439 L70.9815061,7.69669595 L79.3159606,7.69669595 L79.3159606,20.1576902 C79.2871121,20.4411121 79.0578091,20.6660601 78.7689,20.6797942 L77.0498697,20.6797942 L77.0498697,22.1247884 L81.4352636,22.1247884 C82.1284758,22.0956555 82.6810515,21.5327653 82.6965364,20.8310775 L82.6965364,20.6797942 L82.6965364,7.69669595 L84.0710818,7.69669595 L84.0710818,6.30268439 L82.6965364,6.30268439 L82.6965364,2.83627977 Z" id="Fill-17" fill="#0E0E0E"></path>
              <path d="M57.3418364,10.5720763 C57.3418364,10.5720763 55.5470788,17.4416254 43.468897,20.982111 L43.468897,22.6868046 C43.468897,22.6868046 58.7469273,19.8615329 61.5984727,9.14976416 L57.4417455,9.73138266 L57.3418364,10.5720763 Z" id="Fill-19" fill="#0E0E0E"></path>
              <path d="M49.0729485,11.9857318 C49.0729485,11.9857318 52.0182515,17.2028185 62.8548879,21.0735468 L62.8548879,22.6866798 C62.8548879,22.6866798 50.5864333,20.295489 45.7000091,11.9857318 L49.0729485,11.9857318 Z" id="Fill-21" fill="#0E0E0E"></path>
              <polygon id="Fill-23" fill="#0E0E0E" points="60.9300788 10.5720763 44.7685636 10.5720763 44.7685636 9.14976416 61.5984727 9.14976416"></polygon>
              <mask id="mask-6" fill="white">
                <use xlink:href="#path-5"></use>
              </mask>
              <g id="Clip-26"></g>
              <polygon id="Fill-25" fill="#0E0E0E" mask="url(#mask-6)" points="43.6017273 6.86850867 62.6336667 6.86850867 62.6336667 5.44536416 43.6017273 5.44536416"></polygon>
              <path d="M51.7432152,2.55117225 L51.7432152,2.55117225 C51.3775182,2.55117225 51.0788515,2.85311445 51.0788515,3.22788902 L51.0788515,3.22892948 L51.0788515,10.0443746 L55.1027909,10.0443746 L55.1027909,2.55117225 L51.7432152,2.55117225 Z" id="Fill-27" fill="#0E0E0E" mask="url(#mask-6)"></path>
              <path d="M49.4155667,27.4251329 L50.5803242,30.8492948 L48.2083848,30.8492948 L49.4155667,27.4251329 Z M50.938597,31.8899653 L51.4983848,33.5536647 L53.0740212,33.5536647 L49.9740818,25.2957225 L48.7707182,25.2957225 L45.6790515,33.5536647 L47.2559606,33.5536647 L47.8407788,31.8899653 L50.938597,31.8899653 Z" id="Fill-28" fill="#0E0E0E" mask="url(#mask-6)"></path>
              <polygon id="Fill-29" fill="#0E0E0E" mask="url(#mask-6)" points="58.0405636 25.2956393 58.0405636 33.5537896 63.1382606 33.5537896 63.1382606 32.4288416 59.5555333 32.4288416 59.5555333 25.2956393"></polygon>
              <polygon id="Fill-30" fill="#0E0E0E" mask="url(#mask-6)" points="68.692697 33.5536647 70.208303 33.5536647 70.208303 25.2955145 68.692697 25.2955145"></polygon>
              <path d="M79.5333636,29.2430913 L77.8605758,29.2430913 L77.8605758,26.4178197 L79.5333636,26.4178197 C80.3729394,26.4178197 80.8754545,27.1390682 80.8754545,27.8359699 C80.8754545,28.5187214 80.4053939,29.2430913 79.5333636,29.2430913 M79.6182121,25.2955769 L76.3451818,25.2955769 L76.3451818,33.5537272 L77.8605758,33.5537272 L77.8605758,30.3790682 L79.6182121,30.3790682 C81.2504848,30.3790682 82.3904242,29.3338197 82.3904242,27.8359699 C82.3904242,26.3404092 81.2504848,25.2955769 79.6182121,25.2955769" id="Fill-31" fill="#0E0E0E" mask="url(#mask-6)"></path>
              <path d="M89.7622091,27.4251329 L90.9263303,30.8492948 L88.5550273,30.8492948 L89.7622091,27.4251329 Z M91.284603,31.8899653 L91.8469364,33.5536647 L93.4198152,33.5536647 L90.3179667,25.2957225 L89.1167242,25.2957225 L86.0271788,33.5536647 L87.6017545,33.5536647 L88.1893303,31.8899653 L91.284603,31.8899653 Z" id="Fill-32" fill="#0E0E0E" mask="url(#mask-6)"></path>
              <polygon id="Fill-33" fill="#0E0E0E" mask="url(#mask-6)" points="101.854158 25.2956393 100.204491 28.8142751 98.5249152 25.2956393 96.8888242 25.2956393 99.4393697 30.1602173 99.4393697 33.5537896 100.9414 33.5537896 100.9414 30.1602173 100.950945 30.1429457 103.49237 25.2956393"></polygon>
            </g>
          </g>
        </g>
      </g>
    </g>
  </g>
</svg>